<mxfile host="Electron" agent="Mozilla/5.0 (Windows NT 10.0; Win64; x64) AppleWebKit/537.36 (KHTML, like Gecko) draw.io/24.7.17 Chrome/128.0.6613.36 Electron/32.0.1 Safari/537.36" version="24.7.17">
  <diagram id="C5RBs43oDa-KdzZeNtuy" name="Page-1">
    <mxGraphModel dx="668" dy="868" grid="1" gridSize="10" guides="1" tooltips="1" connect="1" arrows="1" fold="1" page="1" pageScale="1" pageWidth="827" pageHeight="1169" math="0" shadow="0">
      <root>
        <mxCell id="WIyWlLk6GJQsqaUBKTNV-0" />
        <mxCell id="WIyWlLk6GJQsqaUBKTNV-1" parent="WIyWlLk6GJQsqaUBKTNV-0" />
        <mxCell id="dY4gaki54DFhNiyGCpFQ-5" style="edgeStyle=orthogonalEdgeStyle;rounded=0;orthogonalLoop=1;jettySize=auto;html=1;entryX=0.5;entryY=0;entryDx=0;entryDy=0;" parent="WIyWlLk6GJQsqaUBKTNV-1" source="dY4gaki54DFhNiyGCpFQ-1" target="dY4gaki54DFhNiyGCpFQ-4" edge="1">
          <mxGeometry relative="1" as="geometry" />
        </mxCell>
        <mxCell id="dY4gaki54DFhNiyGCpFQ-1" value="Initialise main()" style="rounded=1;whiteSpace=wrap;html=1;arcSize=50;" parent="WIyWlLk6GJQsqaUBKTNV-1" vertex="1">
          <mxGeometry x="40" y="40" width="160" height="80" as="geometry" />
        </mxCell>
        <mxCell id="dY4gaki54DFhNiyGCpFQ-7" style="edgeStyle=orthogonalEdgeStyle;rounded=0;orthogonalLoop=1;jettySize=auto;html=1;entryX=0;entryY=0.5;entryDx=0;entryDy=0;" parent="WIyWlLk6GJQsqaUBKTNV-1" source="dY4gaki54DFhNiyGCpFQ-4" target="dY4gaki54DFhNiyGCpFQ-6" edge="1">
          <mxGeometry relative="1" as="geometry" />
        </mxCell>
        <mxCell id="dY4gaki54DFhNiyGCpFQ-12" style="edgeStyle=orthogonalEdgeStyle;rounded=0;orthogonalLoop=1;jettySize=auto;html=1;entryX=0.5;entryY=0;entryDx=0;entryDy=0;" parent="WIyWlLk6GJQsqaUBKTNV-1" source="dY4gaki54DFhNiyGCpFQ-4" target="dY4gaki54DFhNiyGCpFQ-10" edge="1">
          <mxGeometry relative="1" as="geometry" />
        </mxCell>
        <mxCell id="dY4gaki54DFhNiyGCpFQ-4" value="Can RS232 Port be&amp;nbsp;&lt;div&gt;opened?&lt;/div&gt;" style="rhombus;whiteSpace=wrap;html=1;" parent="WIyWlLk6GJQsqaUBKTNV-1" vertex="1">
          <mxGeometry x="40" y="160" width="160" height="120" as="geometry" />
        </mxCell>
        <mxCell id="dY4gaki54DFhNiyGCpFQ-6" value="Prints error message&amp;nbsp;&lt;div&gt;and terminate program&lt;/div&gt;" style="rounded=0;whiteSpace=wrap;html=1;" parent="WIyWlLk6GJQsqaUBKTNV-1" vertex="1">
          <mxGeometry x="280" y="180" width="165" height="80" as="geometry" />
        </mxCell>
        <mxCell id="dY4gaki54DFhNiyGCpFQ-8" value="No" style="text;html=1;align=center;verticalAlign=middle;resizable=0;points=[];autosize=1;strokeColor=none;fillColor=none;" parent="WIyWlLk6GJQsqaUBKTNV-1" vertex="1">
          <mxGeometry x="215" y="200" width="40" height="30" as="geometry" />
        </mxCell>
        <mxCell id="dY4gaki54DFhNiyGCpFQ-15" style="edgeStyle=orthogonalEdgeStyle;rounded=0;orthogonalLoop=1;jettySize=auto;html=1;entryX=0.5;entryY=0;entryDx=0;entryDy=0;" parent="WIyWlLk6GJQsqaUBKTNV-1" source="dY4gaki54DFhNiyGCpFQ-10" target="dY4gaki54DFhNiyGCpFQ-14" edge="1">
          <mxGeometry relative="1" as="geometry" />
        </mxCell>
        <mxCell id="dY4gaki54DFhNiyGCpFQ-10" value="&lt;div&gt;Wakes up robot and configures robot for drawing&lt;/div&gt;" style="rounded=0;whiteSpace=wrap;html=1;" parent="WIyWlLk6GJQsqaUBKTNV-1" vertex="1">
          <mxGeometry x="37.5" y="320" width="165" height="80" as="geometry" />
        </mxCell>
        <mxCell id="dY4gaki54DFhNiyGCpFQ-13" value="Yes" style="text;html=1;align=center;verticalAlign=middle;resizable=0;points=[];autosize=1;strokeColor=none;fillColor=none;" parent="WIyWlLk6GJQsqaUBKTNV-1" vertex="1">
          <mxGeometry x="120" y="288" width="40" height="30" as="geometry" />
        </mxCell>
        <mxCell id="dY4gaki54DFhNiyGCpFQ-18" style="edgeStyle=orthogonalEdgeStyle;rounded=0;orthogonalLoop=1;jettySize=auto;html=1;entryX=0.5;entryY=0;entryDx=0;entryDy=0;" parent="WIyWlLk6GJQsqaUBKTNV-1" source="dY4gaki54DFhNiyGCpFQ-14" target="dY4gaki54DFhNiyGCpFQ-17" edge="1">
          <mxGeometry relative="1" as="geometry" />
        </mxCell>
        <mxCell id="dY4gaki54DFhNiyGCpFQ-14" value="Open &#39;SingleStrokeFont.txt&#39;" style="rounded=0;whiteSpace=wrap;html=1;" parent="WIyWlLk6GJQsqaUBKTNV-1" vertex="1">
          <mxGeometry x="37.5" y="440" width="165" height="80" as="geometry" />
        </mxCell>
        <mxCell id="dY4gaki54DFhNiyGCpFQ-20" style="edgeStyle=orthogonalEdgeStyle;rounded=0;orthogonalLoop=1;jettySize=auto;html=1;entryX=0;entryY=0.5;entryDx=0;entryDy=0;" parent="WIyWlLk6GJQsqaUBKTNV-1" source="dY4gaki54DFhNiyGCpFQ-17" target="dY4gaki54DFhNiyGCpFQ-19" edge="1">
          <mxGeometry relative="1" as="geometry" />
        </mxCell>
        <mxCell id="dY4gaki54DFhNiyGCpFQ-23" style="edgeStyle=orthogonalEdgeStyle;rounded=0;orthogonalLoop=1;jettySize=auto;html=1;entryX=0.5;entryY=0;entryDx=0;entryDy=0;" parent="WIyWlLk6GJQsqaUBKTNV-1" source="dY4gaki54DFhNiyGCpFQ-17" target="dY4gaki54DFhNiyGCpFQ-22" edge="1">
          <mxGeometry relative="1" as="geometry" />
        </mxCell>
        <mxCell id="dY4gaki54DFhNiyGCpFQ-17" value="Can RS232 Port be&amp;nbsp;&lt;div&gt;opened?&lt;/div&gt;" style="rhombus;whiteSpace=wrap;html=1;" parent="WIyWlLk6GJQsqaUBKTNV-1" vertex="1">
          <mxGeometry x="40" y="560" width="160" height="120" as="geometry" />
        </mxCell>
        <mxCell id="dY4gaki54DFhNiyGCpFQ-19" value="Prints error message&amp;nbsp;&lt;div&gt;and terminates program&lt;/div&gt;" style="rounded=0;whiteSpace=wrap;html=1;" parent="WIyWlLk6GJQsqaUBKTNV-1" vertex="1">
          <mxGeometry x="280" y="580" width="165" height="80" as="geometry" />
        </mxCell>
        <mxCell id="dY4gaki54DFhNiyGCpFQ-21" value="No" style="text;html=1;align=center;verticalAlign=middle;resizable=0;points=[];autosize=1;strokeColor=none;fillColor=none;" parent="WIyWlLk6GJQsqaUBKTNV-1" vertex="1">
          <mxGeometry x="215" y="600" width="40" height="30" as="geometry" />
        </mxCell>
        <mxCell id="dY4gaki54DFhNiyGCpFQ-25" style="edgeStyle=orthogonalEdgeStyle;rounded=0;orthogonalLoop=1;jettySize=auto;html=1;entryX=0.5;entryY=0;entryDx=0;entryDy=0;" parent="WIyWlLk6GJQsqaUBKTNV-1" source="dY4gaki54DFhNiyGCpFQ-22" target="dY4gaki54DFhNiyGCpFQ-24" edge="1">
          <mxGeometry relative="1" as="geometry" />
        </mxCell>
        <mxCell id="dY4gaki54DFhNiyGCpFQ-22" value="Initialise &#39;loadFontData&#39; function to read font data&lt;div&gt;and close font file&lt;/div&gt;" style="rounded=0;whiteSpace=wrap;html=1;" parent="WIyWlLk6GJQsqaUBKTNV-1" vertex="1">
          <mxGeometry x="38" y="720" width="165" height="80" as="geometry" />
        </mxCell>
        <mxCell id="dY4gaki54DFhNiyGCpFQ-27" style="edgeStyle=orthogonalEdgeStyle;rounded=0;orthogonalLoop=1;jettySize=auto;html=1;entryX=0.5;entryY=0;entryDx=0;entryDy=0;" parent="WIyWlLk6GJQsqaUBKTNV-1" source="dY4gaki54DFhNiyGCpFQ-24" target="dY4gaki54DFhNiyGCpFQ-26" edge="1">
          <mxGeometry relative="1" as="geometry" />
        </mxCell>
        <mxCell id="dY4gaki54DFhNiyGCpFQ-24" value="Prompt user to input text&amp;nbsp;&lt;div&gt;file name&lt;/div&gt;" style="rounded=0;whiteSpace=wrap;html=1;" parent="WIyWlLk6GJQsqaUBKTNV-1" vertex="1">
          <mxGeometry x="38" y="840" width="165" height="80" as="geometry" />
        </mxCell>
        <mxCell id="dY4gaki54DFhNiyGCpFQ-29" style="edgeStyle=orthogonalEdgeStyle;rounded=0;orthogonalLoop=1;jettySize=auto;html=1;entryX=0.5;entryY=0;entryDx=0;entryDy=0;" parent="WIyWlLk6GJQsqaUBKTNV-1" source="dY4gaki54DFhNiyGCpFQ-26" target="dY4gaki54DFhNiyGCpFQ-28" edge="1">
          <mxGeometry relative="1" as="geometry" />
        </mxCell>
        <mxCell id="dY4gaki54DFhNiyGCpFQ-26" value="Open and read text file" style="rounded=0;whiteSpace=wrap;html=1;" parent="WIyWlLk6GJQsqaUBKTNV-1" vertex="1">
          <mxGeometry x="37.5" y="960" width="165" height="80" as="geometry" />
        </mxCell>
        <mxCell id="dY4gaki54DFhNiyGCpFQ-31" style="edgeStyle=orthogonalEdgeStyle;rounded=0;orthogonalLoop=1;jettySize=auto;html=1;entryX=0;entryY=0.5;entryDx=0;entryDy=0;" parent="WIyWlLk6GJQsqaUBKTNV-1" source="dY4gaki54DFhNiyGCpFQ-28" target="dY4gaki54DFhNiyGCpFQ-30" edge="1">
          <mxGeometry relative="1" as="geometry" />
        </mxCell>
        <mxCell id="dY4gaki54DFhNiyGCpFQ-35" value="" style="edgeStyle=orthogonalEdgeStyle;rounded=0;orthogonalLoop=1;jettySize=auto;html=1;" parent="WIyWlLk6GJQsqaUBKTNV-1" source="dY4gaki54DFhNiyGCpFQ-28" target="dY4gaki54DFhNiyGCpFQ-34" edge="1">
          <mxGeometry relative="1" as="geometry" />
        </mxCell>
        <mxCell id="dY4gaki54DFhNiyGCpFQ-28" value="Array of text data&lt;div&gt;has content&lt;/div&gt;" style="rhombus;whiteSpace=wrap;html=1;" parent="WIyWlLk6GJQsqaUBKTNV-1" vertex="1">
          <mxGeometry x="40" y="1080" width="160" height="120" as="geometry" />
        </mxCell>
        <mxCell id="dY4gaki54DFhNiyGCpFQ-30" value="Prints error message&amp;nbsp;&lt;div&gt;and terminates program&lt;/div&gt;" style="rounded=0;whiteSpace=wrap;html=1;" parent="WIyWlLk6GJQsqaUBKTNV-1" vertex="1">
          <mxGeometry x="255" y="1100" width="165" height="80" as="geometry" />
        </mxCell>
        <mxCell id="dY4gaki54DFhNiyGCpFQ-32" value="No" style="text;html=1;align=center;verticalAlign=middle;resizable=0;points=[];autosize=1;strokeColor=none;fillColor=none;" parent="WIyWlLk6GJQsqaUBKTNV-1" vertex="1">
          <mxGeometry x="203" y="1120" width="40" height="30" as="geometry" />
        </mxCell>
        <mxCell id="dY4gaki54DFhNiyGCpFQ-33" value="Yes" style="text;html=1;align=center;verticalAlign=middle;resizable=0;points=[];autosize=1;strokeColor=none;fillColor=none;" parent="WIyWlLk6GJQsqaUBKTNV-1" vertex="1">
          <mxGeometry x="120" y="690" width="40" height="30" as="geometry" />
        </mxCell>
        <mxCell id="dY4gaki54DFhNiyGCpFQ-38" style="edgeStyle=orthogonalEdgeStyle;rounded=0;orthogonalLoop=1;jettySize=auto;html=1;entryX=0.5;entryY=0;entryDx=0;entryDy=0;" parent="WIyWlLk6GJQsqaUBKTNV-1" source="dY4gaki54DFhNiyGCpFQ-34" target="dY4gaki54DFhNiyGCpFQ-39" edge="1">
          <mxGeometry relative="1" as="geometry">
            <mxPoint x="120.5" y="1360" as="targetPoint" />
          </mxGeometry>
        </mxCell>
        <mxCell id="dY4gaki54DFhNiyGCpFQ-34" value="Prompt user to input text height" style="rounded=0;whiteSpace=wrap;html=1;" parent="WIyWlLk6GJQsqaUBKTNV-1" vertex="1">
          <mxGeometry x="38" y="1240" width="165" height="80" as="geometry" />
        </mxCell>
        <mxCell id="dY4gaki54DFhNiyGCpFQ-36" value="Yes" style="text;html=1;align=center;verticalAlign=middle;resizable=0;points=[];autosize=1;strokeColor=none;fillColor=none;" parent="WIyWlLk6GJQsqaUBKTNV-1" vertex="1">
          <mxGeometry x="120" y="1210" width="40" height="30" as="geometry" />
        </mxCell>
        <mxCell id="dY4gaki54DFhNiyGCpFQ-41" style="edgeStyle=orthogonalEdgeStyle;rounded=0;orthogonalLoop=1;jettySize=auto;html=1;entryX=0;entryY=0.5;entryDx=0;entryDy=0;" parent="WIyWlLk6GJQsqaUBKTNV-1" source="dY4gaki54DFhNiyGCpFQ-39" target="dY4gaki54DFhNiyGCpFQ-40" edge="1">
          <mxGeometry relative="1" as="geometry" />
        </mxCell>
        <mxCell id="dY4gaki54DFhNiyGCpFQ-45" style="edgeStyle=orthogonalEdgeStyle;rounded=0;orthogonalLoop=1;jettySize=auto;html=1;entryX=0.5;entryY=0;entryDx=0;entryDy=0;" parent="WIyWlLk6GJQsqaUBKTNV-1" source="dY4gaki54DFhNiyGCpFQ-39" target="dY4gaki54DFhNiyGCpFQ-44" edge="1">
          <mxGeometry relative="1" as="geometry" />
        </mxCell>
        <mxCell id="dY4gaki54DFhNiyGCpFQ-39" value="Is the value between&amp;nbsp;&lt;div&gt;4-10 mm?&lt;/div&gt;" style="rhombus;whiteSpace=wrap;html=1;" parent="WIyWlLk6GJQsqaUBKTNV-1" vertex="1">
          <mxGeometry x="40.5" y="1360" width="160" height="120" as="geometry" />
        </mxCell>
        <mxCell id="dY4gaki54DFhNiyGCpFQ-40" value="Prints error message&amp;nbsp;&lt;div&gt;and terminates program&lt;/div&gt;" style="rounded=0;whiteSpace=wrap;html=1;" parent="WIyWlLk6GJQsqaUBKTNV-1" vertex="1">
          <mxGeometry x="255" y="1380" width="165" height="80" as="geometry" />
        </mxCell>
        <mxCell id="dY4gaki54DFhNiyGCpFQ-42" value="No" style="text;html=1;align=center;verticalAlign=middle;resizable=0;points=[];autosize=1;strokeColor=none;fillColor=none;" parent="WIyWlLk6GJQsqaUBKTNV-1" vertex="1">
          <mxGeometry x="200" y="1398" width="40" height="30" as="geometry" />
        </mxCell>
        <mxCell id="dY4gaki54DFhNiyGCpFQ-48" style="edgeStyle=orthogonalEdgeStyle;rounded=0;orthogonalLoop=1;jettySize=auto;html=1;entryX=0.5;entryY=0;entryDx=0;entryDy=0;" parent="WIyWlLk6GJQsqaUBKTNV-1" source="dY4gaki54DFhNiyGCpFQ-44" target="dY4gaki54DFhNiyGCpFQ-47" edge="1">
          <mxGeometry relative="1" as="geometry" />
        </mxCell>
        <mxCell id="dY4gaki54DFhNiyGCpFQ-44" value="Text data is translated to&amp;nbsp;&lt;div&gt;strokes and scaled to&lt;/div&gt;&lt;div&gt;input height&lt;/div&gt;" style="rounded=0;whiteSpace=wrap;html=1;" parent="WIyWlLk6GJQsqaUBKTNV-1" vertex="1">
          <mxGeometry x="38" y="1520" width="165" height="80" as="geometry" />
        </mxCell>
        <mxCell id="dY4gaki54DFhNiyGCpFQ-46" value="Yes" style="text;html=1;align=center;verticalAlign=middle;resizable=0;points=[];autosize=1;strokeColor=none;fillColor=none;" parent="WIyWlLk6GJQsqaUBKTNV-1" vertex="1">
          <mxGeometry x="120" y="1490" width="40" height="30" as="geometry" />
        </mxCell>
        <mxCell id="dY4gaki54DFhNiyGCpFQ-50" style="edgeStyle=orthogonalEdgeStyle;rounded=0;orthogonalLoop=1;jettySize=auto;html=1;entryX=0.5;entryY=0;entryDx=0;entryDy=0;" parent="WIyWlLk6GJQsqaUBKTNV-1" source="dY4gaki54DFhNiyGCpFQ-47" target="dY4gaki54DFhNiyGCpFQ-49" edge="1">
          <mxGeometry relative="1" as="geometry" />
        </mxCell>
        <mxCell id="dY4gaki54DFhNiyGCpFQ-47" value="Translaated strokes are then&lt;div&gt;converted to G-code&lt;/div&gt;" style="rounded=0;whiteSpace=wrap;html=1;" parent="WIyWlLk6GJQsqaUBKTNV-1" vertex="1">
          <mxGeometry x="38" y="1640" width="165" height="80" as="geometry" />
        </mxCell>
        <mxCell id="dY4gaki54DFhNiyGCpFQ-52" style="edgeStyle=orthogonalEdgeStyle;rounded=0;orthogonalLoop=1;jettySize=auto;html=1;entryX=0.5;entryY=0;entryDx=0;entryDy=0;" parent="WIyWlLk6GJQsqaUBKTNV-1" source="dY4gaki54DFhNiyGCpFQ-49" target="dY4gaki54DFhNiyGCpFQ-51" edge="1">
          <mxGeometry relative="1" as="geometry" />
        </mxCell>
        <mxCell id="dY4gaki54DFhNiyGCpFQ-49" value="&#39;generateAndSendGCode&#39;&amp;nbsp;&lt;div&gt;function generates the G-code&lt;/div&gt;&lt;div&gt;and sends it to the robot&lt;/div&gt;" style="rounded=0;whiteSpace=wrap;html=1;" parent="WIyWlLk6GJQsqaUBKTNV-1" vertex="1">
          <mxGeometry x="37.5" y="1754" width="165" height="80" as="geometry" />
        </mxCell>
        <mxCell id="dY4gaki54DFhNiyGCpFQ-54" style="edgeStyle=orthogonalEdgeStyle;rounded=0;orthogonalLoop=1;jettySize=auto;html=1;entryX=0.5;entryY=0;entryDx=0;entryDy=0;" parent="WIyWlLk6GJQsqaUBKTNV-1" source="dY4gaki54DFhNiyGCpFQ-51" target="dY4gaki54DFhNiyGCpFQ-53" edge="1">
          <mxGeometry relative="1" as="geometry" />
        </mxCell>
        <mxCell id="dY4gaki54DFhNiyGCpFQ-51" value="Output data to the&amp;nbsp;&lt;div&gt;Arduino via RS232&lt;/div&gt;&lt;div&gt;communication&amp;nbsp;&lt;/div&gt;" style="shape=parallelogram;perimeter=parallelogramPerimeter;whiteSpace=wrap;html=1;fixedSize=1;" parent="WIyWlLk6GJQsqaUBKTNV-1" vertex="1">
          <mxGeometry x="45" y="1880" width="150" height="80" as="geometry" />
        </mxCell>
        <mxCell id="dY4gaki54DFhNiyGCpFQ-53" value="Close the RS232 communication port and&amp;nbsp;&lt;div&gt;terminate the program&lt;/div&gt;" style="rounded=1;whiteSpace=wrap;html=1;arcSize=50;" parent="WIyWlLk6GJQsqaUBKTNV-1" vertex="1">
          <mxGeometry x="38" y="2000" width="165" height="80" as="geometry" />
        </mxCell>
      </root>
    </mxGraphModel>
  </diagram>
</mxfile>
